<?xml version="1.0" encoding="utf-8"?>
<!-- Generator: Adobe Illustrator 23.0.2, SVG Export Plug-In . SVG Version: 6.00 Build 0)  -->
<svg version="1.1" id="Layer_1" xmlns="http://www.w3.org/2000/svg" xmlns:xlink="http://www.w3.org/1999/xlink" x="0px" y="0px"
	 viewBox="0 0 256 256" style="enable-background:new 0 0 256 256;" xml:space="preserve">
<style type="text/css">
	.st0{fill:#1E3E7D;}
	.st1{fill:#D9EEFC;}
	.st2{fill:#86B3E0;}
	.st3{fill:#FFFEF9;}
</style>
<polygon class="st0" points="154.75,16.7 154.75,31.54 201.95,27.08 200.28,178.86 200.28,209.2 128.4,228.08 22.26,202.46 
	22.26,41.18 "/>
<polygon class="st1" points="0.35,36.6 0.35,209.54 128.4,244.6 128.4,65.25 100.77,58.84 100.08,206.51 75.6,201.67 76.21,52.15 
	48.89,47.38 48.89,193.63 24.7,188.63 24.82,41.18 "/>
<polygon class="st2" points="154.75,16.7 24.82,41.18 0.35,36.6 128.4,13 "/>
<polygon class="st2" points="201.95,27.08 76.21,52.15 48.89,47.38 172.63,23.11 "/>
<polygon class="st2" points="227.57,32.88 256.17,38.27 128.4,65.25 100.77,58.84 "/>
<polygon class="st2" points="48.89,181.4 24.7,188.63 48.89,193.63 "/>
<polygon class="st2" points="100.14,193.63 75.6,201.67 100.08,206.51 "/>
<polygon class="st2" points="204.31,166.73 256.17,178.86 155.77,206.51 155.77,181.4 "/>
<polygon class="st2" points="203.64,96.93 256.17,107.39 155.08,131.66 155.08,109.42 "/>
<polygon class="st3" points="256.17,70.25 256.17,38.27 128.4,65.25 128.4,244.6 256.17,207.85 256.17,178.86 155.77,206.51 
	156.11,164.03 256.17,136.62 256.17,107.39 155.08,131.66 155.44,92.84 "/>
</svg>
