<?xml version="1.0" encoding="utf-8"?>
<!-- Generator: Adobe Illustrator 23.0.2, SVG Export Plug-In . SVG Version: 6.00 Build 0)  -->
<svg version="1.1" id="Layer_1" xmlns="http://www.w3.org/2000/svg" xmlns:xlink="http://www.w3.org/1999/xlink" x="0px" y="0px"
	 viewBox="0 0 350 38" style="enable-background:new 0 0 350 38;" xml:space="preserve">
<style type="text/css">
	.st0{fill:none;stroke:#000000;stroke-miterlimit:10;}
	.st1{fill:#FFFFFF;}
</style>
<path class="st0" d="M218.51-127.67"/>
<g>
	<g>
		<path class="st1" d="M154.01,8.71h3.12l-0.05,19.27l8.28,0.07l0.03-19.34h2.58l0.06,19.34l7.39,0.01V8.72h2.74v22.31h-7.97h-4.89
			h-11.38L154.01,8.71z"/>
		<path class="st1" d="M6.97,8.85h3.12l-0.05,19.27l8.28,0.07l0.03-19.34h2.58l0.06,19.34l7.39,0.01V8.86h2.74v22.31h-7.97h-4.89
			H6.88L6.97,8.85z"/>
		<path class="st1" d="M34.3,19.92c0-7.15,3.93-11.48,9.54-11.48c5.6,0,9.54,4.35,9.54,11.48c0,7.15-3.93,11.65-9.54,11.65
			C38.24,31.57,34.3,27.07,34.3,19.92z M50.44,19.92c0-5.56-2.62-8.99-6.6-8.99s-6.6,3.43-6.6,8.99s2.62,9.15,6.6,9.15
			S50.44,25.48,50.44,19.92z"/>
		<path class="st1" d="M58,8.85h2.84v19.91h9.74v2.4H58V8.85z"/>
		<path class="st1" d="M74.36,8.85h12.87v2.4H77.2v7.52h8.5v2.4h-8.5v9.98h-2.84V8.85z"/>
		<path class="st1" d="M97.61,8.85h12.86v2.4h-10.02v6.99h8.45v2.4h-8.45v8.11h10.36v2.4h-13.2V8.85L97.61,8.85z"/>
		<path class="st1" d="M115.36,8.85h2.93l8.08,14.03l2.41,4.62h0.14c-0.14-2.25-0.36-4.77-0.36-7.1V8.85h2.7v22.31h-2.93
			l-8.08-14.04l-2.41-4.61h-0.14c0.14,2.26,0.36,4.64,0.36,6.97v11.68h-2.7V8.85z"/>
		<path class="st1" d="M141.83,11.25h-6.75v-2.4h16.34v2.4h-6.75v19.91h-2.84V11.25z"/>
		<path class="st1" d="M181.8,8.85h2.84v22.31h-2.84V8.85z"/>
		<path class="st1" d="M189.27,20.02c0-7.2,4.24-11.58,9.9-11.58c2.71,0,4.83,1.32,6.14,2.75l-1.56,1.85
			c-1.17-1.25-2.65-2.1-4.53-2.1c-4.22,0-7.02,3.45-7.02,9.01c0,5.61,2.68,9.12,6.91,9.12c2.13,0,3.75-0.93,5.17-2.51l1.56,1.78
			c-1.76,2.05-3.95,3.22-6.85,3.22C193.44,31.57,189.27,27.27,189.27,20.02z"/>
		<path class="st1" d="M209.81,8.85h2.84v11.19h0.09l9.27-11.19h3.21l-6.98,8.5l8.06,13.81h-3.17l-6.66-11.59l-3.83,4.54v7.05h-2.84
			L209.81,8.85L209.81,8.85z"/>
		<path class="st1" d="M229.33,8.85h2.84v19.91h9.74v2.4h-12.58V8.85z"/>
		<path class="st1" d="M244.6,21.95V8.85h2.84v13.18c0,5.36,2.27,7.05,5.18,7.05c2.96,0,5.29-1.69,5.29-7.05V8.85h2.72v13.1
			c0,7.16-3.46,9.62-8.01,9.62S244.6,29.11,244.6,21.95z"/>
		<path class="st1" d="M266.46,8.85h2.93l8.08,14.03l2.41,4.62h0.14c-0.14-2.25-0.36-4.77-0.36-7.1V8.85h2.7v22.31h-2.93
			l-8.08-14.04l-2.41-4.61h-0.14c0.14,2.26,0.36,4.64,0.36,6.97v11.68h-2.7V8.85z"/>
		<path class="st1" d="M286.99,20.02c0-7.2,4.33-11.58,10.24-11.58c3.09,0,5.13,1.4,6.43,2.75l-1.56,1.85
			c-1.13-1.17-2.56-2.1-4.8-2.1c-4.5,0-7.38,3.45-7.38,9.01c0,5.61,2.65,9.12,7.41,9.12c1.6,0,3.14-0.48,4.02-1.31v-5.81h-4.73V19.6
			h7.31v9.38c-1.43,1.5-3.88,2.59-6.88,2.59C291.18,31.57,286.99,27.27,286.99,20.02z"/>
		<path class="st1" d="M309.09,8.85h12.86v2.4h-10.02v6.99h8.45v2.4h-8.45v8.11h10.36v2.4h-13.2L309.09,8.85L309.09,8.85z"/>
		<path class="st1" d="M326.84,8.85h2.93l8.08,14.03l2.41,4.62h0.14c-0.14-2.25-0.36-4.77-0.36-7.1V8.85h2.7v22.31h-2.93
			l-8.08-14.04l-2.41-4.61h-0.14c0.14,2.26,0.36,4.64,0.36,6.97v11.68h-2.7V8.85z"/>
	</g>
</g>
</svg>
