<?xml version="1.0" encoding="utf-8"?>
<!-- Generator: Adobe Illustrator 23.0.2, SVG Export Plug-In . SVG Version: 6.00 Build 0)  -->
<svg version="1.1" id="Layer_1" xmlns="http://www.w3.org/2000/svg" xmlns:xlink="http://www.w3.org/1999/xlink" x="0px" y="0px"
	 viewBox="0 0 361.57 179.17" style="enable-background:new 0 0 361.57 179.17;" xml:space="preserve">
<style type="text/css">
	.st0{fill:#023986;}
	.st1{fill:#D8EEFF;}
	.st2{fill:#7EB7FE;}
	.st3{fill:none;stroke:#000000;stroke-miterlimit:10;}
	.st4{fill:#FEFFF9;}
	.st5{fill:#FDFEFF;}
</style>
<polygon class="st0" points="196.73,4.94 196.73,12.49 220.73,10.22 219.88,87.4 219.88,102.83 183.33,112.43 129.36,99.4 
	129.36,17.39 "/>
<polygon class="st1" points="118.22,15.06 118.22,103 183.33,120.83 183.33,29.63 169.28,26.37 168.93,101.46 156.48,99 
	156.79,22.97 142.9,20.54 142.9,94.91 130.6,92.37 130.66,17.39 "/>
<polygon class="st2" points="196.73,4.94 130.66,17.39 118.22,15.06 183.33,3.06 "/>
<polygon class="st2" points="220.73,10.22 156.79,22.97 142.9,20.54 205.82,8.2 "/>
<polygon class="st2" points="233.76,13.17 248.3,15.91 183.33,29.63 169.28,26.37 "/>
<polygon class="st2" points="142.9,88.69 130.6,92.37 142.9,94.91 "/>
<polygon class="st2" points="168.96,94.91 156.48,99 168.93,101.46 "/>
<polygon class="st2" points="221.93,81.23 248.3,87.4 197.25,101.46 197.25,88.69 "/>
<polygon class="st2" points="221.59,45.74 248.3,51.06 196.9,63.4 196.9,52.09 "/>
<path class="st3" d="M223.82,10.22"/>
<polygon class="st4" points="248.3,32.17 248.3,15.91 183.33,29.63 183.33,120.83 248.3,102.14 248.3,87.4 197.25,101.46 
	197.42,79.86 248.3,65.92 248.3,51.06 196.9,63.4 197.08,43.66 "/>
<g>
	<g>
		<path class="st5" d="M159.31,146.6h3.12l-0.05,19.27l8.28,0.07l0.03-19.34h2.58l0.06,19.34l7.39,0.01l0-19.34h2.74v22.31h-7.97
			h-4.89h-11.38L159.31,146.6z"/>
		<path class="st5" d="M12.27,146.74h3.12l-0.05,19.27l8.28,0.07l0.03-19.34h2.58l0.06,19.34l7.39,0.01l0-19.34h2.74v22.31h-7.97
			h-4.89H12.18L12.27,146.74z"/>
		<path class="st5" d="M39.61,157.81c0-7.15,3.93-11.48,9.54-11.48c5.6,0,9.54,4.35,9.54,11.48c0,7.15-3.93,11.65-9.54,11.65
			C43.54,169.46,39.61,164.96,39.61,157.81z M55.75,157.81c0-5.56-2.62-8.99-6.6-8.99s-6.6,3.43-6.6,8.99s2.62,9.15,6.6,9.15
			S55.75,163.37,55.75,157.81z"/>
		<path class="st5" d="M63.31,146.74h2.84v19.91h9.74v2.4H63.31V146.74z"/>
		<path class="st5" d="M79.66,146.74h12.87v2.4H82.5v7.52h8.5v2.4h-8.5v9.98h-2.84V146.74z"/>
		<path class="st5" d="M102.92,146.74h12.86v2.4h-10.02v6.99h8.45v2.4h-8.45v8.11h10.36v2.4h-13.2V146.74z"/>
		<path class="st5" d="M120.67,146.74h2.93l8.08,14.03l2.41,4.62h0.14c-0.14-2.25-0.36-4.77-0.36-7.1v-11.55h2.7v22.31h-2.93
			l-8.08-14.04l-2.41-4.61H123c0.14,2.26,0.36,4.64,0.36,6.97v11.68h-2.7V146.74z"/>
		<path class="st5" d="M147.14,149.14h-6.75v-2.4h16.34v2.4h-6.75v19.91h-2.84V149.14z"/>
		<path class="st5" d="M187.1,146.74h2.84v22.31h-2.84V146.74z"/>
		<path class="st5" d="M194.58,157.91c0-7.2,4.24-11.58,9.9-11.58c2.71,0,4.83,1.32,6.14,2.75l-1.56,1.85
			c-1.17-1.25-2.65-2.1-4.53-2.1c-4.22,0-7.02,3.45-7.02,9.01c0,5.61,2.68,9.12,6.91,9.12c2.13,0,3.75-0.93,5.17-2.51l1.56,1.78
			c-1.76,2.05-3.95,3.22-6.85,3.22C198.74,169.46,194.58,165.16,194.58,157.91z"/>
		<path class="st5" d="M215.12,146.74h2.84v11.19h0.09l9.27-11.19h3.21l-6.98,8.5l8.06,13.81h-3.17l-6.66-11.59l-3.83,4.54v7.05
			h-2.84V146.74z"/>
		<path class="st5" d="M234.63,146.74h2.84v19.91h9.74v2.4h-12.58V146.74z"/>
		<path class="st5" d="M249.91,159.84v-13.1h2.84v13.18c0,5.36,2.27,7.05,5.18,7.05c2.96,0,5.29-1.69,5.29-7.05v-13.18h2.72v13.1
			c0,7.16-3.46,9.62-8.01,9.62C253.37,169.46,249.91,167,249.91,159.84z"/>
		<path class="st5" d="M271.76,146.74h2.93l8.08,14.03l2.41,4.62h0.14c-0.14-2.25-0.36-4.77-0.36-7.1v-11.55h2.7v22.31h-2.93
			l-8.08-14.04l-2.41-4.61h-0.14c0.14,2.26,0.36,4.64,0.36,6.97v11.68h-2.7V146.74z"/>
		<path class="st5" d="M292.29,157.91c0-7.2,4.33-11.58,10.24-11.58c3.09,0,5.13,1.4,6.43,2.75l-1.56,1.85
			c-1.13-1.17-2.56-2.1-4.8-2.1c-4.5,0-7.38,3.45-7.38,9.01c0,5.61,2.65,9.12,7.41,9.12c1.6,0,3.14-0.48,4.02-1.31v-5.81h-4.73
			v-2.35h7.31v9.38c-1.43,1.5-3.88,2.59-6.88,2.59C296.48,169.46,292.29,165.16,292.29,157.91z"/>
		<path class="st5" d="M314.4,146.74h12.86v2.4h-10.02v6.99h8.45v2.4h-8.45v8.11h10.36v2.4h-13.2V146.74z"/>
		<path class="st5" d="M332.15,146.74h2.93l8.08,14.03l2.41,4.62h0.14c-0.14-2.25-0.36-4.77-0.36-7.1v-11.55h2.7v22.31h-2.93
			l-8.08-14.04l-2.41-4.61h-0.14c0.14,2.26,0.36,4.64,0.36,6.97v11.68h-2.7V146.74z"/>
	</g>
</g>
</svg>
