<?xml version="1.0" encoding="utf-8"?>
<!-- Generator: Adobe Illustrator 23.0.2, SVG Export Plug-In . SVG Version: 6.00 Build 0)  -->
<svg version="1.1" id="Layer_1" xmlns="http://www.w3.org/2000/svg" xmlns:xlink="http://www.w3.org/1999/xlink" x="0px" y="0px"
	 viewBox="0 0 361.6 179.2" style="enable-background:new 0 0 361.6 179.2;" xml:space="preserve">
<style type="text/css">
	.st0{fill:#023986;}
	.st1{fill:#D8EEFF;}
	.st2{fill:#7EB7FE;}
	.st3{fill:none;stroke:#000000;stroke-miterlimit:10;}
	.st4{fill:#FEFFF9;}
</style>
<g>
	
		<image style="overflow:visible;opacity:0.25;" width="191" height="179" xlink:href="19FB2EF1.png"  transform="matrix(1 0 0 1 90 -25.8)">
	</image>
	<g>
		<g>
			<polygon class="st0" points="196.7,4.9 196.7,12.5 220.7,10.2 219.9,87.4 219.9,102.8 183.3,112.4 129.4,99.4 129.4,17.4 			"/>
			<polygon class="st1" points="118.2,15.1 118.2,103 183.3,120.8 183.3,29.6 169.3,26.4 168.9,101.5 156.5,99 156.8,23 142.9,20.5 
				142.9,94.9 130.6,92.4 130.7,17.4 			"/>
			<polygon class="st2" points="196.7,4.9 130.7,17.4 118.2,15.1 183.3,3.1 			"/>
			<polygon class="st2" points="220.7,10.2 156.8,23 142.9,20.5 205.8,8.2 			"/>
			<polygon class="st2" points="233.8,13.2 248.3,15.9 183.3,29.6 169.3,26.4 			"/>
			<polygon class="st2" points="142.9,88.7 130.6,92.4 142.9,94.9 			"/>
			<polygon class="st2" points="169,94.9 156.5,99 168.9,101.5 			"/>
			<polygon class="st2" points="221.9,81.2 248.3,87.4 197.3,101.5 197.3,88.7 			"/>
			<polygon class="st2" points="221.6,45.7 248.3,51.1 196.9,63.4 196.9,52.1 			"/>
			<path class="st3" d="M223.8,10.2"/>
			<polygon class="st4" points="248.3,32.2 248.3,15.9 183.3,29.6 183.3,120.8 248.3,102.1 248.3,87.4 197.3,101.5 197.4,79.9 
				248.3,65.9 248.3,51.1 196.9,63.4 197.1,43.7 			"/>
		</g>
	</g>
</g>
<g>
	
		<image style="overflow:visible;opacity:0.25;" width="396" height="84" xlink:href="19FB2EF3.png"  transform="matrix(1 0 0 1 -16 118.2)">
	</image>
	<g>
		<g>
			<g>
				<path class="st0" d="M159.3,146.6h3.1l-0.1,19.3l8.3,0.1v-19.3h2.6l0.1,19.3h7.4v-19.3h2.7V169h-8h-4.9h-11.4L159.3,146.6z"/>
				<path class="st0" d="M12.3,146.7h3.1L15.3,166l8.3,0.1v-19.3h2.6l0.1,19.3h7.4v-19.3h2.7v22.3h-8h-4.9H12.2L12.3,146.7z"/>
				<path class="st0" d="M39.6,157.8c0-7.1,3.9-11.5,9.5-11.5s9.5,4.4,9.5,11.5s-3.9,11.6-9.5,11.6C43.5,169.5,39.6,165,39.6,157.8z
					 M55.8,157.8c0-5.6-2.6-9-6.6-9s-6.6,3.4-6.6,9s2.6,9.1,6.6,9.1S55.8,163.4,55.8,157.8z"/>
				<path class="st0" d="M63.3,146.7h2.8v19.9h9.7v2.4H63.3V146.7z"/>
				<path class="st0" d="M79.7,146.7h12.9v2.4h-10v7.5H91v2.4h-8.5v10h-2.8V146.7z"/>
				<path class="st0" d="M102.9,146.7h12.9v2.4h-10v7h8.4v2.4h-8.4v8.1h10.4v2.4H103v-22.3H102.9z"/>
				<path class="st0" d="M120.7,146.7h2.9l8.1,14l2.4,4.6h0.1c-0.1-2.3-0.4-4.8-0.4-7.1v-11.6h2.7V169h-2.9l-8.1-14l-2.4-4.6H123
					c0.1,2.3,0.4,4.6,0.4,7V169h-2.7L120.7,146.7L120.7,146.7z"/>
				<path class="st0" d="M147.1,149.1h-6.8v-2.4h16.3v2.4H150V169h-2.8L147.1,149.1L147.1,149.1z"/>
				<path class="st0" d="M187.1,146.7h2.8V169h-2.8V146.7z"/>
				<path class="st0" d="M194.6,157.9c0-7.2,4.2-11.6,9.9-11.6c2.7,0,4.8,1.3,6.1,2.8L209,151c-1.2-1.3-2.6-2.1-4.5-2.1
					c-4.2,0-7,3.4-7,9s2.7,9.1,6.9,9.1c2.1,0,3.8-0.9,5.2-2.5l1.6,1.8c-1.8,2.1-3.9,3.2-6.9,3.2
					C198.7,169.5,194.6,165.2,194.6,157.9z"/>
				<path class="st0" d="M215.1,146.7h2.8v11.2h0.1l9.3-11.2h3.2l-7,8.5l8.1,13.8h-3.2l-6.7-11.6l-3.8,4.5v7.1h-2.8L215.1,146.7
					L215.1,146.7z"/>
				<path class="st0" d="M234.6,146.7h2.8v19.9h9.7v2.4h-12.6v-22.3H234.6z"/>
				<path class="st0" d="M249.9,159.8v-13.1h2.8v13.2c0,5.4,2.3,7.1,5.2,7.1c3,0,5.3-1.7,5.3-7.1v-13.2h2.7v13.1
					c0,7.2-3.5,9.6-8,9.6C253.4,169.5,249.9,167,249.9,159.8z"/>
				<path class="st0" d="M271.8,146.7h2.9l8.1,14l2.4,4.6h0.1c-0.1-2.3-0.4-4.8-0.4-7.1v-11.6h2.7V169h-2.9l-8.1-14l-2.4-4.6h-0.1
					c0.1,2.3,0.4,4.6,0.4,7V169h-2.7V146.7z"/>
				<path class="st0" d="M292.3,157.9c0-7.2,4.3-11.6,10.2-11.6c3.1,0,5.1,1.4,6.4,2.8l-1.6,1.9c-1.1-1.2-2.6-2.1-4.8-2.1
					c-4.5,0-7.4,3.4-7.4,9s2.6,9.1,7.4,9.1c1.6,0,3.1-0.5,4-1.3v-5.8h-4.7v-2.4h7.3v9.4c-1.4,1.5-3.9,2.6-6.9,2.6
					C296.5,169.5,292.3,165.2,292.3,157.9z"/>
				<path class="st0" d="M314.4,146.7h12.9v2.4h-10v7h8.5v2.4h-8.5v8.1h10.4v2.4h-13.2L314.4,146.7L314.4,146.7z"/>
				<path class="st0" d="M332.1,146.7h2.9l8.1,14l2.4,4.6h0.1c-0.1-2.3-0.4-4.8-0.4-7.1v-11.6h2.7V169H345l-8.1-14l-2.4-4.6h-0.1
					c0.1,2.3,0.4,4.6,0.4,7V169h-2.7V146.7z"/>
			</g>
		</g>
	</g>
</g>
</svg>
